<?xml version="1.0" encoding="UTF-8"?>
<svg xmlns="http://www.w3.org/2000/svg" xmlns:xlink="http://www.w3.org/1999/xlink" width="375pt" height="374.999991pt" viewBox="0 0 375 374.999991" version="1.1">
<defs>
<clipPath id="clip1">
  <path d="M 137 87 L 337.796875 87 L 337.796875 289 L 137 289 Z M 137 87 "/>
</clipPath>
<clipPath id="clip2">
  <path d="M 37.5 87 L 238 87 L 238 289 L 37.5 289 Z M 37.5 87 "/>
</clipPath>
<clipPath id="clip3">
  <path d="M 87 138 L 288 138 L 288 337.796875 L 87 337.796875 Z M 87 138 "/>
</clipPath>
<clipPath id="clip4">
  <path d="M 87 37.5 L 288 37.5 L 288 239 L 87 239 Z M 87 37.5 "/>
</clipPath>
<clipPath id="clip5">
  <path d="M 149.417969 168 L 177 168 L 177 207 L 149.417969 207 Z M 149.417969 168 "/>
</clipPath>
<clipPath id="clip6">
  <path d="M 198 168 L 225.609375 168 L 225.609375 207 L 198 207 Z M 198 168 "/>
</clipPath>
<clipPath id="clip7">
  <path d="M 174 157.933594 L 201 157.933594 L 201 217.097656 L 174 217.097656 Z M 174 157.933594 "/>
</clipPath>
</defs>
<g id="surface1">
<rect x="0" y="0" width="375" height="374.999991" style="fill:rgb(100%,100%,100%);fill-opacity:1;stroke:none;"/>
<rect x="0" y="0" width="375" height="374.999991" style="fill:rgb(100%,100%,100%);fill-opacity:1;stroke:none;"/>
<rect x="0" y="0" width="375" height="374.999991" style="fill:rgb(42.749023%,70.979309%,90.589905%);fill-opacity:1;stroke:none;"/>
<g clip-path="url(#clip1)" clip-rule="nonzero">
<path style=" stroke:none;fill-rule:nonzero;fill:rgb(13.729858%,12.159729%,12.548828%);fill-opacity:0.498;" d="M 337.746094 188.046875 C 337.746094 189.6875 337.703125 191.324219 337.625 192.960938 C 337.542969 194.597656 337.421875 196.230469 337.261719 197.859375 C 337.101563 199.488281 336.902344 201.113281 336.660156 202.734375 C 336.421875 204.355469 336.140625 205.96875 335.820313 207.574219 C 335.503906 209.183594 335.144531 210.78125 334.746094 212.371094 C 334.347656 213.957031 333.910156 215.539063 333.433594 217.105469 C 332.960938 218.671875 332.445313 220.226563 331.894531 221.769531 C 331.339844 223.3125 330.753906 224.839844 330.125 226.355469 C 329.5 227.867188 328.835938 229.363281 328.132813 230.84375 C 327.433594 232.328125 326.699219 233.789063 325.925781 235.234375 C 325.152344 236.679688 324.347656 238.105469 323.503906 239.507813 C 322.660156 240.914063 321.785156 242.296875 320.875 243.660156 C 319.964844 245.023438 319.023438 246.359375 318.046875 247.675781 C 317.070313 248.992188 316.0625 250.285156 315.023438 251.550781 C 313.984375 252.816406 312.914063 254.054688 311.816406 255.269531 C 310.714844 256.484375 309.585938 257.667969 308.425781 258.828125 C 307.269531 259.988281 306.082031 261.117188 304.867188 262.214844 C 303.65625 263.316406 302.414063 264.386719 301.148438 265.425781 C 299.882813 266.464844 298.589844 267.472656 297.273438 268.449219 C 295.960938 269.421875 294.621094 270.367188 293.257813 271.277344 C 291.894531 272.1875 290.511719 273.0625 289.109375 273.90625 C 287.703125 274.746094 286.277344 275.554688 284.832031 276.328125 C 283.386719 277.097656 281.925781 277.835938 280.445313 278.535156 C 278.964844 279.234375 277.464844 279.898438 275.953125 280.527344 C 274.4375 281.152344 272.910156 281.742188 271.367188 282.292969 C 269.828125 282.847656 268.269531 283.359375 266.703125 283.835938 C 265.136719 284.3125 263.558594 284.75 261.96875 285.144531 C 260.378906 285.542969 258.78125 285.902344 257.175781 286.222656 C 255.566406 286.542969 253.953125 286.824219 252.335938 287.0625 C 250.714844 287.304688 249.089844 287.503906 247.457031 287.664063 C 245.828125 287.824219 244.195313 287.945313 242.558594 288.027344 C 240.921875 288.105469 239.285156 288.144531 237.648438 288.144531 C 236.007813 288.144531 234.371094 288.105469 232.734375 288.027344 C 231.097656 287.945313 229.464844 287.824219 227.835938 287.664063 C 226.203125 287.503906 224.578125 287.304688 222.960938 287.0625 C 221.339844 286.824219 219.726563 286.542969 218.117188 286.222656 C 216.511719 285.902344 214.914063 285.542969 213.324219 285.144531 C 211.734375 284.75 210.15625 284.3125 208.589844 283.835938 C 207.023438 283.359375 205.46875 282.847656 203.925781 282.292969 C 202.382813 281.742188 200.855469 281.152344 199.339844 280.527344 C 197.828125 279.898438 196.328125 279.234375 194.847656 278.535156 C 193.367188 277.835938 191.90625 277.097656 190.460938 276.328125 C 189.015625 275.554688 187.589844 274.746094 186.1875 273.90625 C 184.78125 273.0625 183.398438 272.1875 182.035156 271.277344 C 180.671875 270.367188 179.332031 269.421875 178.019531 268.449219 C 176.703125 267.472656 175.410156 266.464844 174.144531 265.425781 C 172.878906 264.386719 171.636719 263.316406 170.425781 262.214844 C 169.210938 261.117188 168.023438 259.988281 166.867188 258.828125 C 165.707031 257.667969 164.578125 256.484375 163.480469 255.269531 C 162.378906 254.054688 161.308594 252.816406 160.269531 251.550781 C 159.230469 250.285156 158.222656 248.992188 157.246094 247.675781 C 156.269531 246.359375 155.328125 245.023438 154.417969 243.660156 C 153.507813 242.296875 152.632813 240.914063 151.789063 239.507813 C 150.945313 238.105469 150.140625 236.679688 149.367188 235.234375 C 148.59375 233.789063 147.859375 232.328125 147.160156 230.84375 C 146.457031 229.363281 145.792969 227.867188 145.167969 226.355469 C 144.539063 224.839844 143.953125 223.3125 143.398438 221.769531 C 142.847656 220.226563 142.335938 218.671875 141.859375 217.105469 C 141.382813 215.539063 140.945313 213.957031 140.546875 212.371094 C 140.148438 210.78125 139.792969 209.183594 139.472656 207.574219 C 139.152344 205.96875 138.871094 204.355469 138.632813 202.734375 C 138.390625 201.113281 138.191406 199.488281 138.03125 197.859375 C 137.871094 196.230469 137.75 194.597656 137.667969 192.960938 C 137.589844 191.324219 137.546875 189.6875 137.546875 188.046875 C 137.546875 186.410156 137.589844 184.773438 137.667969 183.136719 C 137.75 181.5 137.871094 179.867188 138.03125 178.238281 C 138.191406 176.605469 138.390625 174.980469 138.632813 173.359375 C 138.871094 171.738281 139.152344 170.125 139.472656 168.519531 C 139.792969 166.914063 140.148438 165.316406 140.546875 163.726563 C 140.945313 162.136719 141.382813 160.558594 141.859375 158.992188 C 142.335938 157.421875 142.847656 155.867188 143.398438 154.324219 C 143.953125 152.785156 144.539063 151.253906 145.167969 149.742188 C 145.792969 148.226563 146.457031 146.730469 147.160156 145.25 C 147.859375 143.769531 148.59375 142.304688 149.367188 140.863281 C 150.140625 139.417969 150.945313 137.992188 151.789063 136.585938 C 152.632813 135.183594 153.507813 133.796875 154.417969 132.4375 C 155.328125 131.074219 156.269531 129.734375 157.246094 128.417969 C 158.222656 127.105469 159.230469 125.8125 160.269531 124.546875 C 161.308594 123.28125 162.378906 122.039063 163.480469 120.824219 C 164.578125 119.613281 165.707031 118.425781 166.867188 117.269531 C 168.023438 116.109375 169.210938 114.980469 170.425781 113.878906 C 171.636719 112.78125 172.878906 111.710938 174.144531 110.671875 C 175.410156 109.632813 176.703125 108.625 178.019531 107.648438 C 179.332031 106.671875 180.671875 105.730469 182.035156 104.820313 C 183.398438 103.910156 184.78125 103.03125 186.1875 102.191406 C 187.589844 101.347656 189.015625 100.542969 190.460938 99.769531 C 191.90625 98.996094 193.367188 98.261719 194.847656 97.558594 C 196.328125 96.859375 197.828125 96.195313 199.339844 95.570313 C 200.855469 94.941406 202.382813 94.351563 203.925781 93.800781 C 205.46875 93.25 207.023438 92.734375 208.589844 92.261719 C 210.15625 91.785156 211.734375 91.347656 213.324219 90.949219 C 214.914063 90.550781 216.511719 90.191406 218.117188 89.871094 C 219.726563 89.554688 221.339844 89.273438 222.960938 89.03125 C 224.578125 88.792969 226.203125 88.59375 227.835938 88.429688 C 229.464844 88.269531 231.097656 88.152344 232.734375 88.070313 C 234.371094 87.988281 236.007813 87.949219 237.648438 87.949219 C 239.285156 87.949219 240.921875 87.988281 242.558594 88.070313 C 244.195313 88.152344 245.828125 88.269531 247.457031 88.429688 C 249.089844 88.59375 250.714844 88.792969 252.335938 89.03125 C 253.953125 89.273438 255.566406 89.554688 257.175781 89.871094 C 258.78125 90.191406 260.378906 90.550781 261.96875 90.949219 C 263.558594 91.347656 265.136719 91.785156 266.703125 92.261719 C 268.269531 92.734375 269.828125 93.25 271.367188 93.800781 C 272.910156 94.351563 274.4375 94.941406 275.953125 95.570313 C 277.464844 96.195313 278.964844 96.859375 280.445313 97.558594 C 281.925781 98.261719 283.386719 98.996094 284.832031 99.769531 C 286.277344 100.542969 287.703125 101.347656 289.109375 102.191406 C 290.511719 103.03125 291.894531 103.910156 293.257813 104.820313 C 294.621094 105.730469 295.960938 106.671875 297.273438 107.648438 C 298.589844 108.625 299.882813 109.632813 301.148438 110.671875 C 302.414063 111.710938 303.65625 112.78125 304.867188 113.878906 C 306.082031 114.980469 307.269531 116.109375 308.425781 117.269531 C 309.585938 118.425781 310.714844 119.613281 311.816406 120.824219 C 312.914063 122.039063 313.984375 123.28125 315.023438 124.546875 C 316.0625 125.8125 317.070313 127.105469 318.046875 128.417969 C 319.023438 129.734375 319.964844 131.074219 320.875 132.4375 C 321.785156 133.796875 322.660156 135.183594 323.503906 136.585938 C 324.347656 137.992188 325.152344 139.417969 325.925781 140.863281 C 326.699219 142.304688 327.433594 143.769531 328.132813 145.25 C 328.835938 146.730469 329.5 148.226563 330.125 149.742188 C 330.753906 151.253906 331.339844 152.785156 331.894531 154.324219 C 332.445313 155.867188 332.960938 157.421875 333.433594 158.992188 C 333.910156 160.558594 334.347656 162.136719 334.746094 163.726563 C 335.144531 165.316406 335.503906 166.914063 335.820313 168.519531 C 336.140625 170.125 336.421875 171.738281 336.660156 173.359375 C 336.902344 174.980469 337.101563 176.605469 337.261719 178.238281 C 337.421875 179.867188 337.542969 181.5 337.625 183.136719 C 337.703125 184.773438 337.746094 186.410156 337.746094 188.046875 Z M 337.746094 188.046875 "/>
</g>
<g clip-path="url(#clip2)" clip-rule="nonzero">
<path style=" stroke:none;fill-rule:nonzero;fill:rgb(13.729858%,12.159729%,12.548828%);fill-opacity:0.498;" d="M 237.648438 188.046875 C 237.648438 189.6875 237.605469 191.324219 237.527344 192.960938 C 237.445313 194.597656 237.324219 196.230469 237.164063 197.859375 C 237.003906 199.488281 236.804688 201.113281 236.5625 202.734375 C 236.324219 204.355469 236.042969 205.96875 235.722656 207.574219 C 235.402344 209.183594 235.042969 210.78125 234.648438 212.371094 C 234.25 213.957031 233.8125 215.539063 233.335938 217.105469 C 232.859375 218.671875 232.347656 220.226563 231.796875 221.769531 C 231.242188 223.3125 230.652344 224.839844 230.027344 226.355469 C 229.398438 227.867188 228.738281 229.363281 228.035156 230.84375 C 227.335938 232.328125 226.597656 233.789063 225.828125 235.234375 C 225.054688 236.679688 224.246094 238.105469 223.40625 239.507813 C 222.5625 240.914063 221.6875 242.296875 220.777344 243.660156 C 219.867188 245.023438 218.925781 246.359375 217.949219 247.675781 C 216.972656 248.992188 215.964844 250.285156 214.925781 251.550781 C 213.886719 252.816406 212.816406 254.054688 211.714844 255.269531 C 210.617188 256.484375 209.488281 257.667969 208.328125 258.828125 C 207.171875 259.988281 205.984375 261.117188 204.769531 262.214844 C 203.554688 263.316406 202.316406 264.386719 201.050781 265.425781 C 199.785156 266.464844 198.492188 267.472656 197.175781 268.449219 C 195.859375 269.421875 194.523438 270.367188 193.160156 271.277344 C 191.796875 272.1875 190.414063 273.0625 189.007813 273.90625 C 187.605469 274.746094 186.179688 275.554688 184.734375 276.328125 C 183.289063 277.097656 181.828125 277.835938 180.347656 278.535156 C 178.863281 279.234375 177.367188 279.898438 175.855469 280.527344 C 174.339844 281.152344 172.8125 281.742188 171.269531 282.292969 C 169.726563 282.847656 168.171875 283.359375 166.605469 283.835938 C 165.039063 284.3125 163.460938 284.75 161.871094 285.144531 C 160.28125 285.542969 158.683594 285.902344 157.078125 286.222656 C 155.46875 286.542969 153.855469 286.824219 152.234375 287.0625 C 150.617188 287.304688 148.988281 287.503906 147.359375 287.664063 C 145.730469 287.824219 144.097656 287.945313 142.460938 288.027344 C 140.824219 288.105469 139.1875 288.144531 137.546875 288.144531 C 135.910156 288.144531 134.273438 288.105469 132.636719 288.027344 C 131 287.945313 129.367188 287.824219 127.738281 287.664063 C 126.105469 287.503906 124.480469 287.304688 122.859375 287.0625 C 121.242188 286.824219 119.625 286.542969 118.019531 286.222656 C 116.414063 285.902344 114.816406 285.542969 113.226563 285.144531 C 111.636719 284.75 110.058594 284.3125 108.492188 283.835938 C 106.921875 283.359375 105.367188 282.847656 103.828125 282.292969 C 102.285156 281.742188 100.753906 281.152344 99.242188 280.527344 C 97.730469 279.898438 96.230469 279.234375 94.75 278.535156 C 93.269531 277.835938 91.808594 277.097656 90.363281 276.328125 C 88.917969 275.554688 87.492188 274.746094 86.085938 273.90625 C 84.683594 273.0625 83.296875 272.1875 81.9375 271.277344 C 80.574219 270.367188 79.234375 269.421875 77.917969 268.449219 C 76.605469 267.472656 75.3125 266.464844 74.046875 265.425781 C 72.78125 264.386719 71.539063 263.316406 70.328125 262.214844 C 69.113281 261.117188 67.925781 259.988281 66.769531 258.828125 C 65.609375 257.667969 64.480469 256.484375 63.378906 255.269531 C 62.28125 254.054688 61.210938 252.816406 60.171875 251.550781 C 59.132813 250.285156 58.125 248.992188 57.148438 247.675781 C 56.171875 246.359375 55.230469 245.023438 54.320313 243.660156 C 53.410156 242.296875 52.535156 240.914063 51.691406 239.507813 C 50.847656 238.105469 50.042969 236.679688 49.269531 235.234375 C 48.496094 233.789063 47.761719 232.328125 47.058594 230.84375 C 46.359375 229.363281 45.695313 227.867188 45.070313 226.355469 C 44.441406 224.839844 43.851563 223.3125 43.300781 221.769531 C 42.75 220.226563 42.234375 218.671875 41.761719 217.105469 C 41.285156 215.539063 40.847656 213.957031 40.449219 212.371094 C 40.050781 210.78125 39.691406 209.183594 39.375 207.574219 C 39.054688 205.96875 38.773438 204.355469 38.535156 202.734375 C 38.292969 201.113281 38.09375 199.488281 37.933594 197.859375 C 37.769531 196.230469 37.652344 194.597656 37.570313 192.960938 C 37.488281 191.324219 37.449219 189.6875 37.449219 188.046875 C 37.449219 186.410156 37.488281 184.773438 37.570313 183.136719 C 37.652344 181.5 37.769531 179.867188 37.933594 178.238281 C 38.09375 176.605469 38.292969 174.980469 38.535156 173.359375 C 38.773438 171.738281 39.054688 170.125 39.375 168.519531 C 39.691406 166.914063 40.050781 165.316406 40.449219 163.726563 C 40.847656 162.136719 41.285156 160.558594 41.761719 158.992188 C 42.234375 157.421875 42.75 155.867188 43.300781 154.324219 C 43.851563 152.785156 44.441406 151.253906 45.070313 149.742188 C 45.695313 148.226563 46.359375 146.730469 47.058594 145.25 C 47.761719 143.769531 48.496094 142.304688 49.269531 140.863281 C 50.042969 139.417969 50.847656 137.992188 51.691406 136.585938 C 52.535156 135.183594 53.410156 133.796875 54.320313 132.4375 C 55.230469 131.074219 56.171875 129.734375 57.148438 128.417969 C 58.125 127.105469 59.132813 125.8125 60.171875 124.546875 C 61.210938 123.28125 62.28125 122.039063 63.378906 120.824219 C 64.480469 119.613281 65.609375 118.425781 66.769531 117.269531 C 67.925781 116.109375 69.113281 114.980469 70.328125 113.878906 C 71.539063 112.78125 72.78125 111.710938 74.046875 110.671875 C 75.3125 109.632813 76.605469 108.625 77.917969 107.648438 C 79.234375 106.671875 80.574219 105.730469 81.9375 104.820313 C 83.296875 103.910156 84.683594 103.03125 86.085938 102.191406 C 87.492188 101.347656 88.917969 100.542969 90.363281 99.769531 C 91.808594 98.996094 93.269531 98.261719 94.75 97.558594 C 96.230469 96.859375 97.730469 96.195313 99.242188 95.570313 C 100.753906 94.941406 102.285156 94.351563 103.828125 93.800781 C 105.367188 93.25 106.921875 92.734375 108.492188 92.261719 C 110.058594 91.785156 111.636719 91.347656 113.226563 90.949219 C 114.816406 90.550781 116.414063 90.191406 118.019531 89.871094 C 119.625 89.554688 121.242188 89.273438 122.859375 89.03125 C 124.480469 88.792969 126.105469 88.59375 127.738281 88.429688 C 129.367188 88.269531 131 88.152344 132.636719 88.070313 C 134.273438 87.988281 135.910156 87.949219 137.546875 87.949219 C 139.1875 87.949219 140.824219 87.988281 142.460938 88.070313 C 144.097656 88.152344 145.730469 88.269531 147.359375 88.429688 C 148.988281 88.59375 150.617188 88.792969 152.234375 89.03125 C 153.855469 89.273438 155.46875 89.554688 157.078125 89.871094 C 158.683594 90.191406 160.28125 90.550781 161.871094 90.949219 C 163.460938 91.347656 165.039063 91.785156 166.605469 92.261719 C 168.171875 92.734375 169.726563 93.25 171.269531 93.800781 C 172.8125 94.351563 174.339844 94.941406 175.855469 95.570313 C 177.367188 96.195313 178.863281 96.859375 180.347656 97.558594 C 181.828125 98.261719 183.289063 98.996094 184.734375 99.769531 C 186.179688 100.542969 187.605469 101.347656 189.007813 102.191406 C 190.414063 103.03125 191.796875 103.910156 193.160156 104.820313 C 194.523438 105.730469 195.859375 106.671875 197.175781 107.648438 C 198.492188 108.625 199.785156 109.632813 201.050781 110.671875 C 202.316406 111.710938 203.554688 112.78125 204.769531 113.878906 C 205.984375 114.980469 207.171875 116.109375 208.328125 117.269531 C 209.488281 118.425781 210.617188 119.613281 211.714844 120.824219 C 212.816406 122.039063 213.886719 123.28125 214.925781 124.546875 C 215.964844 125.8125 216.972656 127.105469 217.949219 128.417969 C 218.925781 129.734375 219.867188 131.074219 220.777344 132.4375 C 221.6875 133.796875 222.5625 135.183594 223.40625 136.585938 C 224.246094 137.992188 225.054688 139.417969 225.828125 140.863281 C 226.597656 142.304688 227.335938 143.769531 228.035156 145.25 C 228.738281 146.730469 229.398438 148.226563 230.027344 149.742188 C 230.652344 151.253906 231.242188 152.785156 231.796875 154.324219 C 232.347656 155.867188 232.859375 157.421875 233.335938 158.992188 C 233.8125 160.558594 234.25 162.136719 234.648438 163.726563 C 235.042969 165.316406 235.402344 166.914063 235.722656 168.519531 C 236.042969 170.125 236.324219 171.738281 236.5625 173.359375 C 236.804688 174.980469 237.003906 176.605469 237.164063 178.238281 C 237.324219 179.867188 237.445313 181.5 237.527344 183.136719 C 237.605469 184.773438 237.648438 186.410156 237.648438 188.046875 Z M 237.648438 188.046875 "/>
</g>
<g clip-path="url(#clip3)" clip-rule="nonzero">
<path style=" stroke:none;fill-rule:nonzero;fill:rgb(13.729858%,12.159729%,12.548828%);fill-opacity:0.498;" d="M 287.695313 238.097656 C 287.695313 239.734375 287.65625 241.371094 287.574219 243.007813 C 287.496094 244.644531 287.375 246.277344 287.214844 247.910156 C 287.054688 249.539063 286.851563 251.164063 286.613281 252.785156 C 286.371094 254.40625 286.09375 256.019531 285.773438 257.625 C 285.453125 259.230469 285.09375 260.828125 284.695313 262.417969 C 284.296875 264.007813 283.859375 265.585938 283.386719 267.152344 C 282.910156 268.722656 282.394531 270.277344 281.84375 271.820313 C 281.292969 273.363281 280.703125 274.890625 280.078125 276.402344 C 279.449219 277.917969 278.785156 279.414063 278.085938 280.894531 C 277.386719 282.375 276.648438 283.839844 275.875 285.28125 C 275.105469 286.726563 274.296875 288.152344 273.453125 289.558594 C 272.613281 290.964844 271.738281 292.347656 270.828125 293.707031 C 269.917969 295.070313 268.972656 296.410156 267.996094 297.726563 C 267.019531 299.042969 266.015625 300.332031 264.972656 301.597656 C 263.933594 302.863281 262.867188 304.105469 261.765625 305.320313 C 260.664063 306.53125 259.535156 307.71875 258.378906 308.878906 C 257.21875 310.035156 256.035156 311.164063 254.820313 312.265625 C 253.605469 313.363281 252.367188 314.433594 251.097656 315.472656 C 249.832031 316.511719 248.542969 317.519531 247.226563 318.496094 C 245.910156 319.472656 244.570313 320.414063 243.210938 321.324219 C 241.847656 322.234375 240.464844 323.113281 239.058594 323.953125 C 237.652344 324.796875 236.226563 325.605469 234.785156 326.375 C 233.339844 327.148438 231.875 327.882813 230.394531 328.585938 C 228.914063 329.285156 227.417969 329.949219 225.902344 330.574219 C 224.390625 331.203125 222.863281 331.792969 221.320313 332.34375 C 219.777344 332.894531 218.222656 333.410156 216.65625 333.886719 C 215.085938 334.359375 213.507813 334.796875 211.917969 335.195313 C 210.332031 335.59375 208.730469 335.953125 207.125 336.273438 C 205.519531 336.589844 203.90625 336.871094 202.285156 337.113281 C 200.664063 337.351563 199.039063 337.554688 197.410156 337.714844 C 195.777344 337.875 194.144531 337.996094 192.507813 338.074219 C 190.871094 338.15625 189.234375 338.195313 187.597656 338.195313 C 185.960938 338.195313 184.320313 338.15625 182.6875 338.074219 C 181.050781 337.996094 179.417969 337.875 177.785156 337.714844 C 176.15625 337.554688 174.53125 337.351563 172.910156 337.113281 C 171.289063 336.871094 169.675781 336.589844 168.070313 336.273438 C 166.460938 335.953125 164.863281 335.59375 163.277344 335.195313 C 161.6875 334.796875 160.109375 334.359375 158.539063 333.886719 C 156.972656 333.410156 155.417969 332.894531 153.875 332.34375 C 152.332031 331.792969 150.804688 331.203125 149.292969 330.574219 C 147.777344 329.949219 146.28125 329.285156 144.800781 328.585938 C 143.320313 327.882813 141.855469 327.148438 140.410156 326.375 C 138.964844 325.605469 137.542969 324.796875 136.136719 323.953125 C 134.730469 323.113281 133.347656 322.234375 131.984375 321.324219 C 130.625 320.414063 129.285156 319.472656 127.96875 318.496094 C 126.652344 317.519531 125.363281 316.511719 124.097656 315.472656 C 122.828125 314.433594 121.589844 313.363281 120.375 312.265625 C 119.160156 311.164063 117.976563 310.035156 116.816406 308.878906 C 115.660156 307.71875 114.53125 306.53125 113.429688 305.320313 C 112.328125 304.105469 111.257813 302.863281 110.21875 301.597656 C 109.179688 300.332031 108.171875 299.042969 107.199219 297.726563 C 106.222656 296.410156 105.277344 295.070313 104.367188 293.707031 C 103.457031 292.347656 102.582031 290.964844 101.742188 289.558594 C 100.898438 288.152344 100.089844 286.726563 99.320313 285.28125 C 98.546875 283.839844 97.808594 282.375 97.109375 280.894531 C 96.410156 279.414063 95.746094 277.917969 95.117188 276.402344 C 94.492188 274.890625 93.902344 273.363281 93.351563 271.820313 C 92.796875 270.277344 92.285156 268.722656 91.808594 267.152344 C 91.332031 265.585938 90.898438 264.007813 90.5 262.417969 C 90.101563 260.828125 89.742188 259.230469 89.421875 257.625 C 89.101563 256.019531 88.824219 254.40625 88.582031 252.785156 C 88.34375 251.164063 88.140625 249.539063 87.980469 247.910156 C 87.820313 246.277344 87.699219 244.644531 87.621094 243.007813 C 87.539063 241.371094 87.5 239.734375 87.5 238.097656 C 87.5 236.457031 87.539063 234.820313 87.621094 233.183594 C 87.699219 231.550781 87.820313 229.917969 87.980469 228.285156 C 88.140625 226.65625 88.34375 225.03125 88.582031 223.410156 C 88.824219 221.789063 89.101563 220.175781 89.421875 218.570313 C 89.742188 216.960938 90.101563 215.363281 90.5 213.773438 C 90.898438 212.1875 91.332031 210.609375 91.808594 209.039063 C 92.285156 207.472656 92.796875 205.917969 93.351563 204.375 C 93.902344 202.832031 94.492188 201.304688 95.117188 199.792969 C 95.746094 198.277344 96.410156 196.78125 97.109375 195.300781 C 97.808594 193.820313 98.546875 192.355469 99.320313 190.910156 C 100.089844 189.464844 100.898438 188.042969 101.742188 186.636719 C 102.582031 185.230469 103.457031 183.847656 104.367188 182.484375 C 105.277344 181.125 106.222656 179.785156 107.199219 178.46875 C 108.171875 177.152344 109.179688 175.863281 110.21875 174.59375 C 111.257813 173.328125 112.328125 172.089844 113.429688 170.875 C 114.53125 169.660156 115.660156 168.476563 116.816406 167.316406 C 117.976563 166.160156 119.160156 165.027344 120.375 163.929688 C 121.589844 162.828125 122.828125 161.757813 124.097656 160.71875 C 125.363281 159.679688 126.652344 158.671875 127.96875 157.699219 C 129.285156 156.722656 130.625 155.777344 131.984375 154.867188 C 133.347656 153.957031 134.730469 153.082031 136.136719 152.238281 C 137.542969 151.398438 138.964844 150.589844 140.410156 149.816406 C 141.855469 149.046875 143.320313 148.308594 144.800781 147.609375 C 146.28125 146.910156 147.777344 146.246094 149.292969 145.617188 C 150.804688 144.992188 152.332031 144.402344 153.875 143.851563 C 155.417969 143.296875 156.972656 142.785156 158.539063 142.308594 C 160.109375 141.832031 161.6875 141.398438 163.277344 141 C 164.863281 140.601563 166.460938 140.242188 168.070313 139.921875 C 169.675781 139.601563 171.289063 139.324219 172.910156 139.082031 C 174.53125 138.839844 176.15625 138.640625 177.785156 138.480469 C 179.417969 138.320313 181.050781 138.199219 182.6875 138.121094 C 184.320313 138.039063 185.960938 138 187.597656 138 C 189.234375 138 190.871094 138.039063 192.507813 138.121094 C 194.144531 138.199219 195.777344 138.320313 197.410156 138.480469 C 199.039063 138.640625 200.664063 138.84375 202.285156 139.082031 C 203.90625 139.324219 205.519531 139.601563 207.125 139.921875 C 208.730469 140.242188 210.332031 140.601563 211.917969 141 C 213.507813 141.398438 215.085938 141.832031 216.65625 142.308594 C 218.222656 142.785156 219.777344 143.296875 221.320313 143.851563 C 222.863281 144.402344 224.390625 144.992188 225.902344 145.617188 C 227.417969 146.246094 228.914063 146.910156 230.394531 147.609375 C 231.875 148.308594 233.339844 149.046875 234.785156 149.816406 C 236.226563 150.589844 237.652344 151.398438 239.058594 152.238281 C 240.464844 153.082031 241.847656 153.957031 243.210938 154.867188 C 244.570313 155.777344 245.910156 156.722656 247.226563 157.699219 C 248.542969 158.671875 249.832031 159.679688 251.097656 160.71875 C 252.367188 161.757813 253.605469 162.828125 254.820313 163.929688 C 256.035156 165.027344 257.21875 166.160156 258.378906 167.316406 C 259.535156 168.476563 260.664063 169.660156 261.765625 170.875 C 262.867188 172.089844 263.933594 173.328125 264.972656 174.59375 C 266.015625 175.863281 267.019531 177.152344 267.996094 178.46875 C 268.972656 179.785156 269.917969 181.125 270.828125 182.484375 C 271.738281 183.847656 272.613281 185.230469 273.453125 186.636719 C 274.296875 188.042969 275.105469 189.464844 275.875 190.910156 C 276.648438 192.355469 277.386719 193.820313 278.085938 195.300781 C 278.785156 196.78125 279.449219 198.277344 280.078125 199.792969 C 280.703125 201.304688 281.292969 202.832031 281.84375 204.375 C 282.394531 205.917969 282.910156 207.472656 283.386719 209.039063 C 283.859375 210.609375 284.296875 212.1875 284.695313 213.773438 C 285.09375 215.363281 285.453125 216.960938 285.773438 218.570313 C 286.09375 220.175781 286.371094 221.789063 286.613281 223.410156 C 286.851563 225.03125 287.054688 226.65625 287.214844 228.285156 C 287.375 229.917969 287.496094 231.550781 287.574219 233.183594 C 287.65625 234.820313 287.695313 236.457031 287.695313 238.097656 Z M 287.695313 238.097656 "/>
</g>
<g clip-path="url(#clip4)" clip-rule="nonzero">
<path style=" stroke:none;fill-rule:nonzero;fill:rgb(13.729858%,12.159729%,12.548828%);fill-opacity:0.498;" d="M 287.695313 138 C 287.695313 139.636719 287.65625 141.273438 287.574219 142.910156 C 287.496094 144.546875 287.375 146.179688 287.214844 147.808594 C 287.054688 149.441406 286.851563 151.066406 286.613281 152.6875 C 286.371094 154.308594 286.09375 155.921875 285.773438 157.527344 C 285.453125 159.132813 285.09375 160.730469 284.695313 162.320313 C 284.296875 163.910156 283.859375 165.488281 283.386719 167.054688 C 282.910156 168.625 282.394531 170.179688 281.84375 171.722656 C 281.292969 173.261719 280.703125 174.792969 280.078125 176.304688 C 279.449219 177.816406 278.785156 179.316406 278.085938 180.796875 C 277.386719 182.277344 276.648438 183.738281 275.875 185.183594 C 275.105469 186.628906 274.296875 188.054688 273.453125 189.460938 C 272.613281 190.863281 271.738281 192.25 270.828125 193.609375 C 269.917969 194.972656 268.972656 196.3125 267.996094 197.628906 C 267.019531 198.941406 266.015625 200.234375 264.972656 201.5 C 263.933594 202.765625 262.867188 204.007813 261.765625 205.21875 C 260.664063 206.433594 259.535156 207.621094 258.378906 208.777344 C 257.21875 209.9375 256.035156 211.066406 254.820313 212.167969 C 253.605469 213.265625 252.367188 214.335938 251.097656 215.375 C 249.832031 216.414063 248.542969 217.421875 247.226563 218.398438 C 245.910156 219.375 244.570313 220.316406 243.210938 221.226563 C 241.847656 222.136719 240.464844 223.015625 239.058594 223.855469 C 237.652344 224.699219 236.226563 225.503906 234.785156 226.277344 C 233.339844 227.050781 231.875 227.785156 230.394531 228.488281 C 228.914063 229.1875 227.417969 229.851563 225.902344 230.476563 C 224.390625 231.105469 222.863281 231.695313 221.320313 232.246094 C 219.777344 232.796875 218.222656 233.3125 216.65625 233.785156 C 215.085938 234.261719 213.507813 234.699219 211.917969 235.097656 C 210.332031 235.496094 208.730469 235.855469 207.125 236.171875 C 205.519531 236.492188 203.90625 236.773438 202.285156 237.015625 C 200.664063 237.253906 199.039063 237.453125 197.410156 237.613281 C 195.777344 237.777344 194.144531 237.894531 192.507813 237.976563 C 190.871094 238.058594 189.234375 238.097656 187.597656 238.097656 C 185.960938 238.097656 184.320313 238.058594 182.6875 237.976563 C 181.050781 237.894531 179.417969 237.777344 177.785156 237.613281 C 176.15625 237.453125 174.53125 237.253906 172.910156 237.015625 C 171.289063 236.773438 169.675781 236.492188 168.070313 236.171875 C 166.460938 235.855469 164.863281 235.496094 163.277344 235.097656 C 161.6875 234.699219 160.109375 234.261719 158.539063 233.785156 C 156.972656 233.3125 155.417969 232.796875 153.875 232.246094 C 152.332031 231.695313 150.804688 231.105469 149.292969 230.476563 C 147.777344 229.851563 146.28125 229.1875 144.800781 228.488281 C 143.320313 227.785156 141.855469 227.050781 140.410156 226.277344 C 138.964844 225.503906 137.542969 224.699219 136.136719 223.855469 C 134.730469 223.015625 133.347656 222.136719 131.984375 221.226563 C 130.625 220.316406 129.285156 219.375 127.96875 218.398438 C 126.652344 217.421875 125.363281 216.414063 124.097656 215.375 C 122.828125 214.335938 121.589844 213.265625 120.375 212.167969 C 119.160156 211.066406 117.976563 209.9375 116.816406 208.777344 C 115.660156 207.621094 114.53125 206.433594 113.429688 205.21875 C 112.328125 204.007813 111.257813 202.765625 110.21875 201.5 C 109.179688 200.234375 108.171875 198.941406 107.199219 197.628906 C 106.222656 196.3125 105.277344 194.972656 104.367188 193.609375 C 103.457031 192.25 102.582031 190.863281 101.742188 189.460938 C 100.898438 188.054688 100.089844 186.628906 99.320313 185.183594 C 98.546875 183.738281 97.808594 182.277344 97.109375 180.796875 C 96.410156 179.316406 95.746094 177.816406 95.117188 176.304688 C 94.492188 174.792969 93.902344 173.261719 93.351563 171.722656 C 92.796875 170.179688 92.285156 168.625 91.808594 167.054688 C 91.332031 165.488281 90.898438 163.910156 90.5 162.320313 C 90.101563 160.730469 89.742188 159.132813 89.421875 157.527344 C 89.101563 155.921875 88.824219 154.308594 88.582031 152.6875 C 88.34375 151.066406 88.140625 149.441406 87.980469 147.808594 C 87.820313 146.179688 87.699219 144.546875 87.621094 142.910156 C 87.539063 141.273438 87.5 139.636719 87.5 138 C 87.5 136.359375 87.539063 134.722656 87.621094 133.085938 C 87.699219 131.449219 87.820313 129.816406 87.980469 128.1875 C 88.140625 126.558594 88.34375 124.933594 88.582031 123.3125 C 88.824219 121.691406 89.101563 120.078125 89.421875 118.46875 C 89.742188 116.863281 90.101563 115.265625 90.5 113.675781 C 90.898438 112.085938 91.332031 110.507813 91.808594 108.941406 C 92.285156 107.375 92.796875 105.820313 93.351563 104.277344 C 93.902344 102.734375 94.492188 101.207031 95.117188 99.691406 C 95.746094 98.179688 96.410156 96.683594 97.109375 95.203125 C 97.808594 93.71875 98.546875 92.257813 99.320313 90.8125 C 100.089844 89.367188 100.898438 87.941406 101.742188 86.539063 C 102.582031 85.132813 103.457031 83.75 104.367188 82.386719 C 105.277344 81.023438 106.222656 79.6875 107.199219 78.371094 C 108.171875 77.054688 109.179688 75.761719 110.21875 74.496094 C 111.257813 73.230469 112.328125 71.992188 113.429688 70.777344 C 114.53125 69.5625 115.660156 68.375 116.816406 67.21875 C 117.976563 66.058594 119.160156 64.929688 120.375 63.832031 C 121.589844 62.730469 122.828125 61.660156 124.097656 60.621094 C 125.363281 59.582031 126.652344 58.574219 127.96875 57.597656 C 129.285156 56.625 130.625 55.679688 131.984375 54.769531 C 133.347656 53.859375 134.730469 52.984375 136.136719 52.140625 C 137.542969 51.300781 138.964844 50.492188 140.410156 49.71875 C 141.855469 48.949219 143.320313 48.210938 144.800781 47.511719 C 146.28125 46.808594 147.777344 46.148438 149.292969 45.519531 C 150.804688 44.894531 152.332031 44.304688 153.875 43.75 C 155.417969 43.199219 156.972656 42.6875 158.539063 42.210938 C 160.109375 41.734375 161.6875 41.296875 163.277344 40.898438 C 164.863281 40.503906 166.460938 40.144531 168.070313 39.824219 C 169.675781 39.503906 171.289063 39.222656 172.910156 38.984375 C 174.53125 38.742188 176.15625 38.542969 177.785156 38.382813 C 179.417969 38.222656 181.050781 38.101563 182.6875 38.019531 C 184.320313 37.941406 185.960938 37.902344 187.597656 37.902344 C 189.234375 37.902344 190.871094 37.941406 192.507813 38.019531 C 194.144531 38.101563 195.777344 38.222656 197.410156 38.382813 C 199.039063 38.542969 200.664063 38.742188 202.285156 38.984375 C 203.90625 39.222656 205.519531 39.503906 207.125 39.824219 C 208.730469 40.144531 210.332031 40.503906 211.917969 40.898438 C 213.507813 41.296875 215.085938 41.734375 216.65625 42.210938 C 218.222656 42.6875 219.777344 43.199219 221.320313 43.75 C 222.863281 44.304688 224.390625 44.894531 225.902344 45.519531 C 227.417969 46.148438 228.914063 46.808594 230.394531 47.511719 C 231.875 48.210938 233.339844 48.949219 234.785156 49.71875 C 236.226563 50.492188 237.652344 51.300781 239.058594 52.140625 C 240.464844 52.984375 241.847656 53.859375 243.210938 54.769531 C 244.570313 55.679688 245.910156 56.625 247.226563 57.597656 C 248.542969 58.574219 249.832031 59.582031 251.097656 60.621094 C 252.367188 61.660156 253.605469 62.730469 254.820313 63.832031 C 256.035156 64.929688 257.21875 66.058594 258.378906 67.21875 C 259.535156 68.375 260.664063 69.5625 261.765625 70.777344 C 262.867188 71.992188 263.933594 73.230469 264.972656 74.496094 C 266.015625 75.761719 267.019531 77.054688 267.996094 78.371094 C 268.972656 79.6875 269.917969 81.023438 270.828125 82.386719 C 271.738281 83.75 272.613281 85.132813 273.453125 86.539063 C 274.296875 87.941406 275.105469 89.367188 275.875 90.8125 C 276.648438 92.257813 277.386719 93.71875 278.085938 95.203125 C 278.785156 96.683594 279.449219 98.179688 280.078125 99.691406 C 280.703125 101.207031 281.292969 102.734375 281.84375 104.277344 C 282.394531 105.820313 282.910156 107.375 283.386719 108.941406 C 283.859375 110.507813 284.296875 112.085938 284.695313 113.675781 C 285.09375 115.265625 285.453125 116.863281 285.773438 118.46875 C 286.09375 120.078125 286.371094 121.691406 286.613281 123.3125 C 286.851563 124.933594 287.054688 126.558594 287.214844 128.1875 C 287.375 129.816406 287.496094 131.449219 287.574219 133.085938 C 287.65625 134.722656 287.695313 136.359375 287.695313 138 Z M 287.695313 138 "/>
</g>
<path style=" stroke:none;fill-rule:nonzero;fill:rgb(42.749023%,70.979309%,90.589905%);fill-opacity:1;" d="M 228.789063 146.859375 C 216.226563 141.152344 202.261719 138 187.597656 138 C 172.933594 138 158.96875 141.152344 146.40625 146.859375 C 140.703125 159.417969 137.546875 173.382813 137.546875 188.046875 C 137.546875 202.710938 140.703125 216.675781 146.40625 229.238281 C 158.96875 234.945313 172.933594 238.097656 187.597656 238.097656 C 202.261719 238.097656 216.226563 234.945313 228.789063 229.238281 C 234.492188 216.675781 237.648438 202.710938 237.648438 188.046875 C 237.648438 173.382813 234.492188 159.417969 228.789063 146.859375 Z M 228.789063 146.859375 "/>
<path style=" stroke:none;fill-rule:nonzero;fill:rgb(42.749023%,70.979309%,90.589905%);fill-opacity:1;" d="M 173.453125 206.171875 C 173.03125 206.171875 172.617188 206.027344 172.285156 205.765625 L 150.972656 188.996094 C 150.515625 188.636719 150.253906 188.097656 150.253906 187.515625 C 150.253906 186.933594 150.515625 186.390625 150.972656 186.027344 L 172.285156 169.265625 C 172.617188 169 173.03125 168.859375 173.453125 168.859375 C 174.035156 168.859375 174.578125 169.121094 174.933594 169.578125 C 175.246094 169.976563 175.386719 170.46875 175.328125 170.96875 C 175.269531 171.46875 175.015625 171.917969 174.621094 172.230469 L 155.195313 187.515625 L 174.621094 202.796875 C 175.015625 203.113281 175.269531 203.558594 175.328125 204.058594 C 175.386719 204.558594 175.246094 205.050781 174.933594 205.449219 C 174.578125 205.90625 174.035156 206.171875 173.453125 206.171875 "/>
<g clip-path="url(#clip5)" clip-rule="nonzero">
<path style=" stroke:none;fill-rule:nonzero;fill:rgb(13.328552%,29.798889%,55.288696%);fill-opacity:1;" d="M 173.453125 168.054688 C 172.851563 168.054688 172.261719 168.257813 171.789063 168.632813 L 150.476563 185.398438 C 149.820313 185.917969 149.449219 186.683594 149.449219 187.515625 C 149.449219 188.34375 149.824219 189.117188 150.476563 189.628906 L 171.789063 206.398438 C 172.261719 206.769531 172.851563 206.972656 173.453125 206.972656 C 174.285156 206.972656 175.058594 206.597656 175.570313 205.945313 C 176.015625 205.382813 176.210938 204.679688 176.128906 203.964844 C 176.042969 203.25 175.683594 202.609375 175.117188 202.167969 L 156.496094 187.515625 L 175.117188 172.863281 C 175.683594 172.414063 176.042969 171.777344 176.128906 171.066406 C 176.210938 170.351563 176.015625 169.648438 175.570313 169.082031 C 175.058594 168.429688 174.28125 168.054688 173.453125 168.054688 Z M 173.453125 169.664063 C 173.773438 169.664063 174.09375 169.804688 174.304688 170.074219 C 174.679688 170.546875 174.59375 171.230469 174.125 171.597656 L 153.894531 187.515625 L 174.125 203.429688 C 174.59375 203.800781 174.679688 204.480469 174.304688 204.953125 C 174.09375 205.226563 173.773438 205.367188 173.453125 205.367188 C 173.21875 205.367188 172.984375 205.292969 172.785156 205.136719 L 151.46875 188.367188 C 151.210938 188.160156 151.054688 187.847656 151.054688 187.515625 C 151.054688 187.179688 151.210938 186.867188 151.46875 186.664063 L 172.785156 169.894531 C 172.980469 169.738281 173.21875 169.664063 173.453125 169.664063 "/>
</g>
<path style=" stroke:none;fill-rule:nonzero;fill:rgb(42.749023%,70.979309%,90.589905%);fill-opacity:1;" d="M 201.574219 206.171875 C 200.992188 206.171875 200.453125 205.90625 200.089844 205.449219 C 199.445313 204.632813 199.585938 203.445313 200.40625 202.796875 L 219.835938 187.515625 L 200.40625 172.230469 C 199.585938 171.585938 199.445313 170.394531 200.089844 169.578125 C 200.453125 169.121094 200.992188 168.859375 201.574219 168.859375 C 201.996094 168.859375 202.410156 169 202.742188 169.265625 L 224.054688 186.027344 C 224.511719 186.390625 224.773438 186.933594 224.773438 187.515625 C 224.773438 188.097656 224.511719 188.636719 224.054688 188.996094 L 202.742188 205.765625 C 202.410156 206.027344 201.996094 206.171875 201.574219 206.171875 "/>
<g clip-path="url(#clip6)" clip-rule="nonzero">
<path style=" stroke:none;fill-rule:nonzero;fill:rgb(13.328552%,29.798889%,55.288696%);fill-opacity:1;" d="M 201.574219 168.054688 C 200.746094 168.054688 199.972656 168.429688 199.457031 169.082031 C 198.539063 170.25 198.742188 171.941406 199.910156 172.863281 L 218.53125 187.515625 L 199.910156 202.167969 C 198.742188 203.082031 198.539063 204.78125 199.457031 205.945313 C 199.972656 206.597656 200.746094 206.972656 201.574219 206.972656 C 202.175781 206.972656 202.765625 206.769531 203.238281 206.398438 L 224.550781 189.628906 C 225.203125 189.117188 225.578125 188.34375 225.578125 187.515625 C 225.578125 186.683594 225.203125 185.917969 224.554688 185.398438 L 203.238281 168.632813 C 202.765625 168.257813 202.175781 168.054688 201.574219 168.054688 Z M 201.574219 169.664063 C 201.808594 169.664063 202.046875 169.738281 202.242188 169.894531 L 223.558594 186.664063 C 223.816406 186.867188 223.96875 187.179688 223.96875 187.515625 C 223.96875 187.847656 223.816406 188.160156 223.558594 188.367188 L 202.242188 205.136719 C 202.046875 205.292969 201.808594 205.367188 201.574219 205.367188 C 201.253906 205.367188 200.933594 205.226563 200.722656 204.953125 C 200.351563 204.480469 200.433594 203.800781 200.902344 203.429688 L 221.132813 187.515625 L 200.902344 171.597656 C 200.433594 171.230469 200.351563 170.546875 200.722656 170.074219 C 200.933594 169.804688 201.257813 169.664063 201.574219 169.664063 "/>
</g>
<path style=" stroke:none;fill-rule:nonzero;fill:rgb(42.749023%,70.979309%,90.589905%);fill-opacity:1;" d="M 176.921875 216.289063 C 176.6875 216.289063 176.460938 216.242188 176.242188 216.160156 C 175.769531 215.976563 175.398438 215.625 175.195313 215.164063 C 174.988281 214.699219 174.980469 214.1875 175.160156 213.71875 L 195.976563 159.945313 C 196.257813 159.226563 196.964844 158.742188 197.734375 158.742188 C 197.96875 158.742188 198.203125 158.785156 198.421875 158.867188 C 199.386719 159.246094 199.875 160.339844 199.496094 161.3125 L 178.683594 215.082031 C 178.40625 215.804688 177.695313 216.289063 176.921875 216.289063 "/>
<g clip-path="url(#clip7)" clip-rule="nonzero">
<path style=" stroke:none;fill-rule:nonzero;fill:rgb(13.328552%,29.798889%,55.288696%);fill-opacity:1;" d="M 197.734375 157.9375 C 196.632813 157.9375 195.621094 158.632813 195.226563 159.65625 L 174.410156 213.425781 C 174.152344 214.097656 174.167969 214.828125 174.460938 215.488281 C 174.75 216.144531 175.277344 216.652344 175.953125 216.910156 C 176.261719 217.03125 176.585938 217.09375 176.921875 217.09375 C 178.023438 217.09375 179.035156 216.402344 179.433594 215.371094 L 200.246094 161.601563 C 200.785156 160.214844 200.09375 158.652344 198.707031 158.121094 C 198.398438 157.996094 198.070313 157.9375 197.734375 157.9375 Z M 197.734375 159.542969 C 197.867188 159.542969 198 159.570313 198.128906 159.617188 C 198.6875 159.832031 198.964844 160.460938 198.75 161.019531 L 177.933594 214.789063 C 177.769531 215.222656 177.355469 215.484375 176.921875 215.484375 C 176.789063 215.484375 176.660156 215.460938 176.53125 215.410156 C 175.96875 215.195313 175.695313 214.566406 175.914063 214.007813 L 196.726563 160.238281 C 196.894531 159.808594 197.300781 159.542969 197.734375 159.542969 "/>
</g>
</g>
</svg>
